<?xml version="1.0" encoding="UTF-8"?>
<svg id="Layer_1" data-name="Layer 1" xmlns="http://www.w3.org/2000/svg" xmlns:xlink="http://www.w3.org/1999/xlink" viewBox="0 0 841.89 595.28">
  <defs>
    <style>
      .cls-1 {
        fill: url(#linear-gradient-8);
      }

      .cls-2 {
        fill: url(#linear-gradient-7);
      }

      .cls-3 {
        fill: url(#linear-gradient-5);
      }

      .cls-4 {
        fill: url(#linear-gradient-6);
      }

      .cls-5 {
        fill: url(#linear-gradient-9);
      }

      .cls-6 {
        fill: url(#linear-gradient-4);
      }

      .cls-7 {
        fill: url(#linear-gradient-3);
      }

      .cls-8 {
        fill: url(#linear-gradient-2);
      }

      .cls-9 {
        fill: #231f20;
      }

      .cls-10 {
        fill: url(#linear-gradient);
      }

      .cls-11 {
        fill: #f1f2f2;
      }

      .cls-12 {
        fill: url(#linear-gradient-10);
      }

      .cls-13 {
        fill: url(#linear-gradient-11);
      }

      .cls-14 {
        fill: url(#linear-gradient-12);
      }
    </style>
    <linearGradient id="linear-gradient" x1="834.52" y1="136.51" x2="849.25" y2="136.51" gradientUnits="userSpaceOnUse">
      <stop offset=".25" stop-color="#d1d3d4"/>
      <stop offset="1" stop-color="#94e4ff"/>
    </linearGradient>
    <linearGradient id="linear-gradient-2" y1="306.14" y2="306.14" xlink:href="#linear-gradient"/>
    <linearGradient id="linear-gradient-3" x1="761.08" y1="178.93" x2="775.8" y2="178.93" gradientUnits="userSpaceOnUse">
      <stop offset="0" stop-color="#fff"/>
      <stop offset=".19" stop-color="#f5f5f5"/>
      <stop offset=".54" stop-color="#e9eaeb"/>
      <stop offset=".91" stop-color="#e6e7e8"/>
    </linearGradient>
    <linearGradient id="linear-gradient-4" y1="263.74" y2="263.74" xlink:href="#linear-gradient-3"/>
    <linearGradient id="linear-gradient-5" x1="768.16" y1="221.33" x2="915.62" y2="221.33" gradientUnits="userSpaceOnUse">
      <stop offset="0" stop-color="#fff"/>
      <stop offset=".04" stop-color="#f5f5f5"/>
      <stop offset=".11" stop-color="#e9eaeb"/>
      <stop offset=".19" stop-color="#e6e7e8"/>
      <stop offset=".4" stop-color="#d1d3d4"/>
      <stop offset=".74" stop-color="#7fe4ff"/>
      <stop offset=".89" stop-color="#00e6ef"/>
      <stop offset="1" stop-color="#008aef"/>
    </linearGradient>
    <linearGradient id="linear-gradient-6" x1="383.77" y1="212.82" x2="398.5" y2="212.82" xlink:href="#linear-gradient"/>
    <linearGradient id="linear-gradient-7" x1="383.77" y1="382.45" x2="398.5" y2="382.45" xlink:href="#linear-gradient"/>
    <linearGradient id="linear-gradient-8" x1="457.23" y1="340.05" x2="471.95" y2="340.05" gradientUnits="userSpaceOnUse">
      <stop offset="0" stop-color="#7fe4ff"/>
      <stop offset=".16" stop-color="#00e6ef"/>
      <stop offset=".93" stop-color="#008aef"/>
    </linearGradient>
    <linearGradient id="linear-gradient-9" y1="255.24" y2="255.24" xlink:href="#linear-gradient-8"/>
    <linearGradient id="linear-gradient-10" x1="310.33" y1="255.24" x2="325.05" y2="255.24" xlink:href="#linear-gradient-3"/>
    <linearGradient id="linear-gradient-11" x1="310.33" y1="340.05" x2="325.05" y2="340.05" xlink:href="#linear-gradient-3"/>
    <linearGradient id="linear-gradient-12" x1="317.42" y1="297.64" x2="464.88" y2="297.64" xlink:href="#linear-gradient-5"/>
  </defs>
  <g>
    <g>
      <polygon class="cls-10" points="849.25 140.76 849.25 132.26 841.88 128.01 834.52 132.26 834.52 140.76 841.88 145.01 849.25 140.76"/>
      <polygon class="cls-8" points="834.52 301.89 834.52 310.39 841.88 314.64 849.25 310.39 849.25 301.89 841.88 297.64 834.52 301.89"/>
      <polygon class="cls-11" points="775.8 183.18 775.8 174.68 768.44 170.43 761.08 174.68 761.08 183.18 768.44 187.43 775.8 183.18"/>
      <polygon class="cls-11" points="761.08 259.49 761.08 267.99 768.44 272.24 775.8 267.99 775.8 259.49 768.44 255.24 761.08 259.49"/>
    </g>
    <polygon class="cls-7" points="775.8 183.18 775.8 174.68 768.44 170.43 761.08 174.68 761.08 183.18 768.44 187.43 775.8 183.18"/>
    <polygon class="cls-6" points="761.08 259.49 761.08 267.99 768.44 272.24 775.8 267.99 775.8 259.49 768.44 255.24 761.08 259.49"/>
    <path class="cls-3" d="M909.82,243.99c-4.41,1.18-8.81,2.36-13.22,3.54-3.13-1.8-6.25-3.61-9.38-5.41,5.71-1.53,11.43-3.06,17.14-4.6,5.8-1.55,3.34-10.55-2.48-8.99-8.7,2.33-17.4,4.66-26.09,6.99-2.56-1.48-5.12-2.96-7.68-4.43,6.05-1.62,12.1-3.25,18.15-4.87,2.54-.68,3.49-2.78,3.28-4.8.3-2.09-.62-4.31-3.25-5.01-6.04-1.62-12.08-3.24-18.12-4.86,2.56-1.48,5.11-2.95,7.67-4.43,8.69,2.33,17.38,4.66,26.07,6.98,5.8,1.56,8.28-7.44,2.48-9-5.71-1.52-11.41-3.05-17.11-4.58,3.12-1.8,6.24-3.6,9.36-5.41,4.4,1.18,8.79,2.36,13.19,3.54,5.81,1.55,8.29-7.45,2.48-9-3.55-.95-7.1-1.9-10.64-2.85.94-3.52,1.88-7.04,2.82-10.55,1.56-5.81-7.44-8.29-9-2.48-1.19,4.43-2.37,8.85-3.56,13.28-3.13,1.81-6.25,3.61-9.38,5.42,1.53-5.69,3.05-11.39,4.58-17.08,1.55-5.81-7.45-8.28-9-2.48-2.34,8.72-4.68,17.44-7.01,26.16-2.56,1.48-5.12,2.95-7.68,4.43,1.62-6.03,3.23-12.06,4.85-18.08.68-2.56-.68-4.47-2.55-5.32-1.66-1.25-4.02-1.53-5.93.38l-13.26,13.26v-8.86c6.37-6.38,12.75-12.75,19.12-19.13,4.26-4.25-2.34-10.85-6.6-6.6-4.17,4.18-8.35,8.35-12.52,12.53v-10.84c3.23-3.23,6.47-6.46,9.7-9.7,4.25-4.25-2.35-10.85-6.6-6.6-2.58,2.58-5.16,5.17-7.75,7.75t-.02-.02c-2.58-2.58-5.17-5.17-7.75-7.75-4.25-4.25-10.85,2.34-6.59,6.6,3.22,3.22,6.45,6.45,9.68,9.68v10.81c-4.17-4.17-8.34-8.33-12.51-12.5s-10.85,2.34-6.6,6.6c6.37,6.37,12.74,12.73,19.11,19.1v8.86c-4.42-4.41-8.83-8.83-13.25-13.24-1.95-1.95-4.4-1.61-6.07-.27-1.8.87-3.09,2.75-2.42,5.26,1.62,6.02,3.23,12.05,4.85,18.08-2.56-1.48-5.12-2.95-7.67-4.43-2.34-8.72-4.68-17.44-7.01-26.16-1.56-5.79-10.56-3.34-9,2.48,1.52,5.69,3.05,11.39,4.57,17.08-3.12-1.81-6.25-3.61-9.38-5.42-1.18-4.43-2.37-8.85-3.56-13.28-1.55-5.8-10.56-3.34-9,2.48.94,3.51,1.89,7.03,2.83,10.55-3.55.95-7.1,1.9-10.65,2.85-5.79,1.55-3.33,10.56,2.48,9,4.4-1.18,8.8-2.36,13.2-3.54,3.12,1.81,6.24,3.61,9.36,5.41-5.71,1.53-11.41,3.06-17.11,4.58-5.8,1.56-3.34,10.56,2.48,9,8.69-2.32,17.37-4.65,26.06-6.98,2.56,1.48,5.12,2.95,7.67,4.43-6.04,1.62-12.08,3.24-18.12,4.86-2.62.7-3.55,2.92-3.24,5-.22,2.03.73,4.13,3.27,4.81,6.05,1.62,12.1,3.25,18.15,4.87-2.56,1.47-5.11,2.95-7.67,4.43-8.7-2.33-17.4-4.66-26.09-6.99-5.81-1.56-8.29,7.44-2.49,8.99,5.72,1.54,11.43,3.07,17.15,4.6-3.13,1.8-6.26,3.61-9.39,5.41-4.4-1.18-8.81-2.36-13.22-3.54-5.8-1.55-8.28,7.45-2.48,9,3.54.95,7.08,1.9,10.62,2.85-.95,3.52-1.89,7.05-2.84,10.58-1.56,5.8,7.44,8.28,9,2.48,1.18-4.42,2.37-8.84,3.55-13.26,3.12-1.8,6.24-3.6,9.37-5.41-1.53,5.69-3.05,11.37-4.57,17.05-1.56,5.81,7.44,8.29,9,2.48,2.33-8.71,4.66-17.42,7-26.13,2.56-1.47,5.11-2.95,7.67-4.43-1.61,6.02-3.23,12.04-4.84,18.06-.69,2.59.71,4.51,2.62,5.34,1.66,1.25,4.02,1.52,5.92-.38,4.42-4.41,8.83-8.83,13.25-13.24v8.86c-6.37,6.37-12.74,12.74-19.11,19.1-4.25,4.26,2.35,10.86,6.6,6.6,4.17-4.16,8.34-8.33,12.51-12.5v10.81c-3.23,3.23-6.46,6.46-9.68,9.68-4.26,4.26,2.34,10.86,6.59,6.6,2.58-2.58,5.17-5.17,7.75-7.74h0s.02-.02.02-.03c2.59,2.59,5.17,5.17,7.75,7.75,4.25,4.25,10.85-2.35,6.6-6.6-3.23-3.23-6.47-6.47-9.7-9.7v-10.84c4.17,4.18,8.35,8.35,12.52,12.53,4.26,4.25,10.86-2.35,6.6-6.6-6.37-6.38-12.75-12.75-19.12-19.13v-8.86l13.26,13.26c1.85,1.86,4.15,1.65,5.8.48,1.97-.8,3.44-2.75,2.73-5.39-1.61-6.02-3.22-12.04-4.84-18.06,2.56,1.48,5.12,2.96,7.68,4.43,2.33,8.71,4.66,17.42,7,26.13,1.55,5.8,10.56,3.34,9-2.48-1.53-5.68-3.05-11.36-4.57-17.05,3.12,1.81,6.24,3.61,9.36,5.41,1.19,4.42,2.37,8.84,3.55,13.26,1.56,5.79,10.56,3.33,9-2.48-.94-3.53-1.89-7.06-2.83-10.58,3.54-.95,7.07-1.9,10.61-2.85,5.8-1.55,3.34-10.56-2.48-9ZM815.24,221.31c3.94-1.05,7.87-2.11,11.8-3.16,1.84,1.06,3.67,2.12,5.51,3.18-1.82,1.05-3.64,2.11-5.46,3.16l-11.85-3.18ZM837.22,235.78c-2.9,2.9-5.8,5.79-8.7,8.69,1.06-3.95,2.12-7.91,3.18-11.87,1.84-1.06,3.68-2.12,5.52-3.18v6.36ZM837.22,213.25c-1.82-1.05-3.64-2.1-5.46-3.15-1.06-3.95-2.11-7.9-3.17-11.86,2.87,2.88,5.75,5.76,8.63,8.63v6.38ZM846.55,206.94c2.87-2.87,5.74-5.75,8.62-8.62-1.06,3.93-2.11,7.85-3.16,11.78-1.82,1.05-3.64,2.1-5.46,3.15v-6.31ZM846.55,235.71v-6.29c1.84,1.06,3.68,2.12,5.52,3.18,1.05,3.93,2.11,7.86,3.16,11.79-2.89-2.89-5.79-5.78-8.68-8.68ZM856.68,224.49c-1.82-1.05-3.64-2.11-5.46-3.16,1.84-1.06,3.68-2.12,5.52-3.18,3.93,1.05,7.86,2.11,11.79,3.16-3.95,1.06-7.9,2.12-11.85,3.18Z"/>
  </g>
  <g>
    <g>
      <polygon class="cls-4" points="398.5 217.07 398.5 208.57 391.13 204.32 383.77 208.57 383.77 217.07 391.13 221.33 398.5 217.07"/>
      <polygon class="cls-2" points="383.77 378.2 383.77 386.7 391.13 390.95 398.5 386.7 398.5 378.2 391.13 373.95 383.77 378.2"/>
      <polygon class="cls-11" points="325.05 259.49 325.05 250.99 317.69 246.74 310.33 250.99 310.33 259.49 317.69 263.74 325.05 259.49"/>
      <polygon class="cls-1" points="457.23 335.8 457.23 344.31 464.59 348.56 471.95 344.31 471.95 335.8 464.59 331.55 457.23 335.8"/>
      <polygon class="cls-11" points="310.33 335.8 310.33 344.31 317.69 348.56 325.05 344.31 325.05 335.8 317.69 331.55 310.33 335.8"/>
      <polygon class="cls-5" points="464.59 246.74 457.23 250.99 457.23 259.49 464.59 263.74 471.95 259.49 471.95 250.99 464.59 246.74"/>
    </g>
    <polygon class="cls-12" points="325.05 259.49 325.05 250.99 317.69 246.74 310.33 250.99 310.33 259.49 317.69 263.74 325.05 259.49"/>
    <polygon class="cls-13" points="310.33 335.8 310.33 344.31 317.69 348.56 325.05 344.31 325.05 335.8 317.69 331.55 310.33 335.8"/>
    <path class="cls-14" d="M331.16,304.85c-4.73-1.27-7.26,4.47-4.89,7.47.53.69,1.32,1.23,2.4,1.52.09.02.18.05.27.07.22.06.45.12.67.18.7-.67,1.86-2.02,3.81-4.63l.11-.14c.61-.83,1.2-1.61,1.77-2.33.23-.29.47-.57.72-.84-1.62-.43-3.24-.87-4.86-1.3ZM355.41,324.63l-.55-.81-4.81-8.41c-.57-.99-1.59-1.68-2.44-1.59-.91.07-1.69.48-2.23,1.17-.45.56-.92,1.17-1.39,1.8l-.17.22c-.17.23-.36.49-.55.75.6.16,1.19.32,1.79.48.28.07.33.45.08.6-1.74,1-3.49,2.01-5.23,3.01-.03.02-.05.03-.07.06-4.08,4.31-10.05,8.27-16.96,3.43-1.51-1.06-3.05-1.92-4.54-2.61-.16-.08-.37,0-.44.16-1.07,2.38-.4,5.56,2.83,6.42,3.44.92,6.87,1.84,10.31,2.77.17.05.28.22.23.4-.92,3.42-1.83,6.84-2.76,10.27-1.56,5.8,7.44,8.28,9,2.48,1.17-4.38,2.35-8.75,3.52-13.13.02-.08.08-.15.15-.2,2.85-1.65,5.71-3.29,8.57-4.95.25-.15.55.09.48.37-1.46,5.44-2.91,10.86-4.37,16.29-1.56,5.81,7.44,8.29,9,2.48,1.57-5.88,3.15-11.75,4.73-17.63.04-.14-.03-.29-.15-.36-1.53-.87-2.9-2.04-4.02-3.46ZM414.93,353.22c-4-4.01-8.01-8.01-12.01-12.02-2.35-2.33-4.66-4.68-7-6.98l-.11-.27v-4.88s0-.07-.02-.1l-8.88-27.17c-.1-.29-.51-.3-.62,0l-1.86,5.13c.52-.3,1.03-.6,1.55-.9.22-.12.49.03.49.28v5.66c0,.09-.03.17-.1.23-2,2-4,4-6,5.99-.03.03-.06.07-.08.12l-.81,2.22c-1.97,5.44-6.83,9.13-12.38,9.41-.49.02-.97.02-1.45,0h-.01c-.32,1.21-.65,2.43-.97,3.64-.69,2.59.71,4.51,2.62,5.34,1.66,1.25,4.02,1.52,5.92-.38,4.23-4.23,8.46-8.46,12.69-12.69.21-.2.56-.06.56.23v7.94c0,.09-.03.17-.1.23-6.34,6.34-12.68,12.68-19.01,19-4.25,4.26,2.35,10.86,6.6,6.6,3.98-3.98,7.97-7.96,11.95-11.94.2-.2.56-.06.56.23v9.89c0,.09-.03.17-.1.23l-9.58,9.58c-4.26,4.26,2.34,10.86,6.59,6.6,2.58-2.58,5.17-5.17,7.75-7.74h0s.02-.02.02-.03c2.59,2.59,5.17,5.17,7.75,7.75,4.25,4.25,10.85-2.35,6.6-6.6l-9.6-9.6c-.06-.06-.1-.14-.1-.23v-9.92c0-.29.35-.43.56-.23,3.99,3.99,7.98,7.98,11.96,11.97,4.26,4.25,10.86-2.35,6.6-6.6ZM462.93,328.72c-2.25-.58-4.83-1.93-7.13-4.84-.51-.64-.97-1.33-1.38-2.07-.07-.13-.22-.19-.36-.16-2.69.72-5.37,1.44-8.07,2.16-.08.02-.17.01-.25-.03-2.86-1.65-5.72-3.3-8.58-4.95-.25-.14-.2-.52.08-.6,4.74-1.27,9.5-2.55,14.25-3.82.17-.05.28-.23.23-.4l-2.26-8.38c-.05-.17-.23-.28-.4-.23-8.01,2.15-16.01,4.29-24.01,6.44-.03-.02-.05-.03-.08-.05l-3.25,12.79c-.01.05-.01.11,0,.16,1.9,7.11,3.81,14.23,5.72,21.34,1.55,5.8,10.56,3.34,9-2.48-1.46-5.43-2.91-10.85-4.37-16.29-.07-.28.23-.51.48-.36,2.85,1.65,5.71,3.3,8.56,4.95.07.04.13.11.15.2,1.18,4.38,2.35,8.75,3.51,13.13,1.56,5.79,10.56,3.33,9-2.48-.91-3.43-1.83-6.85-2.75-10.27-.05-.17.06-.35.23-.4,3.43-.92,6.86-1.84,10.3-2.77.52-.14.98-.34,1.37-.59ZM435.55,292.73c-1.68-.45-3.37-.9-5.05-1.35-.18-.05-.35.06-.4.23l-3.24,12.75c-.06.24.16.46.4.39,2.75-.74,5.51-1.47,8.26-2.22,2.54-.68,3.49-2.78,3.28-4.8.3-2.09-.62-4.31-3.25-5.01ZM427.39,249.23c-2.33,8.68-4.66,17.35-6.98,26.03-.02.08-.08.15-.15.2-2.29,1.33-4.59,2.64-6.88,3.97-.25.14-.55-.09-.48-.37,1.55-5.78,3.09-11.55,4.65-17.32.68-2.56-.68-4.47-2.55-5.32-1.66-1.25-4.02-1.53-5.93.38l-12.7,12.7c-.2.2-.56.06-.56-.23v-7.94c0-.09.03-.17.1-.23,6.34-6.35,12.69-12.69,19.02-19.03,4.26-4.25-2.34-10.85-6.6-6.6-3.98,3.99-7.98,7.98-11.96,11.97-.2.21-.56.06-.56-.23v-9.92c0-.09.03-.17.1-.23,3.2-3.2,6.41-6.4,9.6-9.6,4.25-4.25-2.35-10.85-6.6-6.6-2.58,2.58-5.16,5.17-7.75,7.75t-.02-.02l-7.75-7.75c-4.25-4.25-10.85,2.34-6.59,6.6,3.19,3.19,6.39,6.39,9.58,9.58.06.06.1.14.1.23v9.89c0,.29-.35.43-.56.23-3.98-3.98-7.97-7.96-11.95-11.94-4.25-4.25-10.85,2.34-6.6,6.6,6.34,6.34,12.68,12.67,19.01,19,.06.06.1.14.1.23v7.94c0,.29-.35.44-.56.23-4.23-4.23-8.46-8.46-12.69-12.69-1.95-1.95-4.4-1.61-6.07-.27-1.8.87-3.09,2.75-2.42,5.26,1.55,5.77,3.09,11.54,4.65,17.32.08.28-.23.51-.48.37-2.29-1.32-4.59-2.64-6.87-3.97-.07-.04-.13-.11-.15-.2-2.33-8.68-4.66-17.35-6.98-26.03-1.56-5.79-10.56-3.34-9,2.48,1.45,5.44,2.91,10.88,4.37,16.32.07.28-.23.51-.48.36-2.86-1.65-5.72-3.3-8.58-4.96-.07-.04-.13-.11-.15-.2-1.17-4.39-2.35-8.76-3.53-13.15-1.55-5.8-10.56-3.34-9,2.48.91,3.41,1.83,6.82,2.75,10.24.05.17-.06.35-.23.4-3.45.92-6.89,1.84-10.34,2.77-6.92,1.85-2.05,14.37,6.24,6.73l9.64-1.16c2.83,1.64,5.65,3.27,8.48,4.9.25.14.2.52-.08.6-5.46,1.46-10.9,2.92-16.35,4.38-5.8,1.56-3.34,10.56,2.48,9,8.65-2.31,17.28-4.63,25.93-6.95.08-.02.17-.01.25.03,2.29,1.33,4.59,2.64,6.87,3.97.25.15.2.52-.08.6-5.79,1.55-11.57,3.1-17.36,4.66-2.62.7-3.55,2.92-3.24,5-.13,1.23.16,2.47.97,3.42.08.09.2.13.32.1.58-.12,1.18-.2,1.77-.24,4.5-.36,8.94,1.42,12.14,4.69.04.04.09.07.14.08,1.77.47,3.55.95,5.32,1.42.28.08.33.45.08.6-.84.49-1.69.97-2.53,1.46-.16.09-.21.29-.12.44l4.08,7.14c.23.18.5.27.81.26.24-.01.7-.33.93-.96l5.76-15.82c.07-.18-.04-.38-.22-.43l-7.27-1.95c-.32-.09-.32-.54,0-.63,3.12-.83,6.24-1.67,9.35-2.5.1-.03.19-.1.22-.2l1.16-3.19s.01-.03.02-.04c.98-2.07,2.51-3.74,4.38-4.86.12-.07.18-.22.15-.35-.93-3.47-1.86-6.95-2.79-10.43-.09-.32.31-.55.54-.31,2.55,2.56,5.12,5.12,7.68,7.67.06.06.1.14.1.23v1.58c.07-.01.15-.01.22-.01,3.39.02,6.44,1.44,8.55,3.85.19.22.56.07.56-.22v-5.12c0-.09.03-.17.1-.23,2.55-2.55,5.1-5.11,7.66-7.67.24-.24.63,0,.54.32-.94,3.49-1.87,6.98-2.81,10.48-.02.08-.08.15-.15.2-1.66.96-3.31,1.91-4.97,2.87-.16.09-.21.3-.1.46.36.53.68,1.09.96,1.69l.27.7,10.56,32.34c.1.31.54.29.62-.02l6.5-25.65c.06-.24-.16-.46-.4-.39-2.84.77-5.69,1.53-8.52,2.29-.08.02-.17.01-.25-.03-.58-.33-1.16-.67-1.73-1l2.15-5.21c2.97.79,5.94,1.59,8.91,2.39.18.05.36-.06.4-.23l2.21-8.73c-.11-.03-.22-.06-.33-.09.14-.08.28-.16.42-.24l5.82-22.99c2.1-8.18,7.61-11.48,12.45-11.93.09-.33.18-.67.27-1,1.55-5.81-7.45-8.28-9-2.48ZM444.75,250.09c-.36,1.33-.72,2.66-1.07,3.99-.04.14.03.29.15.36,2.83,1.6,5.21,4.23,6.79,7.56.13.28.53.25.61-.05.84-3.13,1.67-6.26,2.51-9.39,1.56-5.81-7.44-8.29-9-2.48ZM441.88,278.27c-1.53-.41-3.05-.82-4.58-1.23-.28-.07-.33-.45-.08-.59,1.18-.68,2.35-1.36,3.53-2.04.13-.07.19-.22.15-.37l-1.35-5.02c-.61-2.31-1.67-3.27-2.14-3.46-.12.06-.23.13-.35.2-.02,0-.03.03-.05.05-.34.43-.66,1.15-.87,2l-4.34,17.09c-.04.17.06.35.23.39,4.1,1.1,8.2,2.21,12.3,3.3.24.06.46-.16.4-.4l-2.62-9.69c-.03-.11-.12-.2-.23-.23ZM461.57,265.97c-3.28-.88-6.55-1.75-9.82-2.63-.26-.07-.48.18-.38.43.23.62.43,1.25.6,1.91l2.1,7.78c.03.11.12.2.23.23,1.6.42,3.19.86,4.79,1.28,5.81,1.55,8.29-7.45,2.48-9Z"/>
  </g>
  <path class="cls-9" d="M482.24,315.16c-3.94,7.6-10.04,12.11-16.46,11.93-2.26-.04-5.57-.86-8.42-4.46-1.24-1.57-2.17-3.47-2.78-5.67l-13.11-48.47c-.9-3.43-2.81-4.98-4.21-4.98-.65,0-1.27.37-1.8,1.02-.53.66-.97,1.61-1.27,2.78l-17.05,67.19c-1.31,3.65-4.7,6.05-8.58,6.11h-.15c-3.82,0-7.21-2.29-8.62-5.85l-.09-.27-12.61-38.59c-.06-.07-.18-.16-.4-.16s-.34.09-.4.18l-8.68,23.92c-1.7,4.68-5.86,7.85-10.6,8.09-3.88.19-7.63-1.51-10.04-4.55l-.38-.56-4.81-8.42c-.96-1.68-2.73-2.75-4.37-2.58-1.43.1-2.72.8-3.6,1.92-.5.62-1.03,1.33-1.58,2.05-3.51,4.74-10.1,13.55-18.2,7.88-9.67-6.78-19.81-5.73-19.92-5.73,0,0-3.85.18-4.5-4.67-.52-3.81,3.45-4.13,3.45-4.13.55-.06,13.49-1.51,26.06,7.28.18.13.28.15.28.15,1.3-.12,4.4-4.3,5.73-6.07.61-.81,1.18-1.58,1.74-2.29,2.39-3.01,5.98-4.93,9.85-5.23,5.11-.41,10.1,2.35,12.76,7.01l4.61,8.08c.65.68,1.55,1.05,2.5,1,1.15-.06,2.24-.97,2.72-2.27l8.93-24.57c1.57-3.31,4.81-5.36,8.47-5.36h.06c3.68.01,6.92,2.11,8.46,5.45l.19.49,12.65,38.74c.04.1.13.19.35.19h.01c.19,0,.28-.07.34-.16l16.83-66.47c1.98-7.69,7.29-10.45,11.62-10.47h.04c5.82,0,10.94,4.64,12.77,11.53l13.11,48.46c.27,1.03.66,1.86,1.15,2.5.87,1.08,1.39,1.09,1.67,1.09h.07c2.16,0,5.6-1.86,8.34-7.15,0,0,1.71-3.32,5.52-1.79,4.4,1.77,2.33,5.86,2.33,5.86Z"/>
</svg>