<?xml version="1.0" encoding="UTF-8"?>
<svg id="Layer_1" data-name="Layer 1" xmlns="http://www.w3.org/2000/svg" xmlns:xlink="http://www.w3.org/1999/xlink" viewBox="0 0 500 500">
  <defs>
    <style>
      .cls-1 {
        fill: #ff0049;
      }

      .cls-2 {
        fill: url(#linear-gradient-7);
      }

      .cls-3 {
        fill: url(#linear-gradient-5);
      }

      .cls-4 {
        fill: url(#linear-gradient-6);
      }

      .cls-5 {
        fill: url(#linear-gradient-4);
      }

      .cls-6 {
        fill: url(#linear-gradient-3);
      }

      .cls-7 {
        fill: url(#linear-gradient-2);
      }

      .cls-8 {
        fill: #231f20;
      }

      .cls-9 {
        fill: url(#linear-gradient);
      }

      .cls-10 {
        fill: #f1f2f2;
      }
    </style>
    <linearGradient id="linear-gradient" x1="230.26" y1="22.78" x2="269.71" y2="22.78" gradientUnits="userSpaceOnUse">
      <stop offset=".25" stop-color="#d1d3d4"/>
      <stop offset="1" stop-color="#94e4ff"/>
    </linearGradient>
    <linearGradient id="linear-gradient-2" y1="477.22" y2="477.22" xlink:href="#linear-gradient"/>
    <linearGradient id="linear-gradient-3" x1="427.06" y1="363.64" x2="466.51" y2="363.64" gradientUnits="userSpaceOnUse">
      <stop offset="0" stop-color="#7fe4ff"/>
      <stop offset=".16" stop-color="#00e6ef"/>
      <stop offset=".93" stop-color="#008aef"/>
    </linearGradient>
    <linearGradient id="linear-gradient-4" y1="136.41" y2="136.41" xlink:href="#linear-gradient-3"/>
    <linearGradient id="linear-gradient-5" x1="33.49" y1="136.41" x2="72.94" y2="136.41" gradientUnits="userSpaceOnUse">
      <stop offset="0" stop-color="#fff"/>
      <stop offset=".19" stop-color="#f5f5f5"/>
      <stop offset=".54" stop-color="#e9eaeb"/>
      <stop offset=".91" stop-color="#e6e7e8"/>
    </linearGradient>
    <linearGradient id="linear-gradient-6" y1="363.64" y2="363.64" xlink:href="#linear-gradient-5"/>
    <linearGradient id="linear-gradient-7" x1="52.47" y1="250" x2="447.54" y2="250" gradientUnits="userSpaceOnUse">
      <stop offset="0" stop-color="#fff"/>
      <stop offset=".04" stop-color="#f5f5f5"/>
      <stop offset=".11" stop-color="#e9eaeb"/>
      <stop offset=".19" stop-color="#e6e7e8"/>
      <stop offset=".4" stop-color="#d1d3d4"/>
      <stop offset=".74" stop-color="#7fe4ff"/>
      <stop offset=".89" stop-color="#00e6ef"/>
      <stop offset="1" stop-color="#008aef"/>
    </linearGradient>
  </defs>
  <g>
    <g>
      <polygon class="cls-9" points="269.71 34.17 269.71 11.39 249.99 0 230.26 11.39 230.26 34.17 249.99 45.55 269.71 34.17"/>
      <polygon class="cls-7" points="230.26 465.83 230.26 488.61 249.99 500 269.71 488.61 269.71 465.83 249.99 454.45 230.26 465.83"/>
      <polygon class="cls-10" points="72.94 147.8 72.94 125.03 53.22 113.64 33.49 125.03 33.49 147.8 53.22 159.19 72.94 147.8"/>
      <polygon class="cls-6" points="427.06 352.25 427.06 375.03 446.78 386.41 466.51 375.03 466.51 352.25 446.78 340.86 427.06 352.25"/>
      <polygon class="cls-10" points="33.49 352.25 33.49 375.03 53.22 386.41 72.94 375.03 72.94 352.25 53.22 340.86 33.49 352.25"/>
      <polygon class="cls-5" points="446.78 113.64 427.06 125.03 427.06 147.8 446.78 159.19 466.51 147.8 466.51 125.03 446.78 113.64"/>
    </g>
    <polygon class="cls-3" points="72.94 147.8 72.94 125.03 53.22 113.64 33.49 125.03 33.49 147.8 53.22 159.19 72.94 147.8"/>
    <polygon class="cls-4" points="33.49 352.25 33.49 375.03 53.22 386.41 72.94 375.03 72.94 352.25 53.22 340.86 33.49 352.25"/>
    <path class="cls-2" d="M347.1,120.29c-2.44,9.08-4.88,18.14-7.29,27.22,7.82-14.01,20.31-19.88,31.4-20.6,4.13-15.54-19.96-22.16-24.11-6.62ZM438.67,165.13c-8.25-2.2-16.53-4.42-24.75-6.64.62,1.69,1.15,3.43,1.63,5.2l6.16,22.8c3.43.91,6.89,1.85,10.31,2.76,15.57,4.15,22.21-19.96,6.64-24.11ZM393.61,122.59c-.78,2.89-1.55,5.79-2.33,8.68,8.39,4.39,15.46,11.87,20.17,21.43,2.09-7.82,4.18-15.67,6.27-23.47,4.18-15.57-19.93-22.21-24.11-6.64ZM368.96,236.83c-3.94-1.04-7.88-2.12-11.81-3.16l-8.87,34.96c6.86-1.85,13.74-3.67,20.6-5.52,6.8-1.82,9.35-7.45,8.79-12.86.8-5.6-1.66-11.55-8.71-13.42ZM368.96,236.83c-3.94-1.04-7.88-2.12-11.81-3.16l-8.87,34.96c6.86-1.85,13.74-3.67,20.6-5.52,6.8-1.82,9.35-7.45,8.79-12.86.8-5.6-1.66-11.55-8.71-13.42ZM383.43,197.42c-3.94-1.04-7.88-2.12-11.81-3.16,3.16-1.82,6.32-3.64,9.48-5.49l-3.99-14.73c-.86-3.24-2.01-5.22-2.89-6.32-.35.7-.72,1.69-1.07,3.03l-11.84,46.64c9.89,2.65,19.8,5.3,29.68,7.96l-7.56-27.92ZM368.96,236.83c-3.94-1.04-7.88-2.12-11.81-3.16l-8.87,34.96c6.86-1.85,13.74-3.67,20.6-5.52,6.8-1.82,9.35-7.45,8.79-12.86.8-5.6-1.66-11.55-8.71-13.42ZM368.96,236.83c-3.94-1.04-7.88-2.12-11.81-3.16l-8.87,34.96c6.86-1.85,13.74-3.67,20.6-5.52,6.8-1.82,9.35-7.45,8.79-12.86.8-5.6-1.66-11.55-8.71-13.42ZM89.29,269.3c-10.8-2.89-17.28,7.8-15.08,15.99,3.38,1.69,6.75,3.59,10.15,5.76,1.79-1.93,4.58-5.28,8.87-11.01l.27-.37c1.66-2.22,3.24-4.34,4.8-6.3.38-.46.75-.91,1.13-1.37-3.38-.88-6.75-1.79-10.13-2.71ZM312.59,247.6l14.28-56.39c-6.38,3.7-12.75,7.34-19.13,11.04,4.34-16.15,8.65-32.31,12.99-48.44,1.82-6.86-1.82-11.98-6.83-14.25-4.45-3.35-10.77-4.1-15.89,1.02l-35.52,35.52v-23.74c17.07-17.09,34.16-34.16,51.22-51.25,11.41-11.39-6.27-29.07-17.68-17.68-11.17,11.2-22.37,22.37-33.54,33.57v-29.04c8.65-8.65,17.33-17.31,25.99-25.99,11.39-11.39-6.3-29.07-17.68-17.68-6.91,6.91-13.82,13.85-20.76,20.76t-.05-.05c-6.91-6.91-13.85-13.85-20.76-20.76-11.39-11.39-29.07,6.27-17.66,17.68,8.63,8.63,17.28,17.28,25.93,25.93v28.96c-11.17-11.17-22.34-22.32-33.52-33.49-11.39-11.39-29.07,6.27-17.68,17.68,17.07,17.07,34.13,34.1,51.2,51.17v23.74c-11.84-11.81-23.66-23.66-35.5-35.47-5.22-5.22-11.79-4.31-16.26-.72-4.82,2.33-8.28,7.37-6.48,14.09,4.34,16.13,8.65,32.28,12.99,48.44-6.86-3.96-13.72-7.9-20.55-11.87-6.27-23.36-12.54-46.72-18.78-70.08-4.18-15.51-28.29-8.95-24.11,6.64,4.07,15.24,8.17,30.51,12.24,45.76-8.36-4.85-16.74-9.67-25.13-14.52-3.16-11.87-6.35-23.71-9.54-35.58-4.15-15.54-28.29-8.95-24.11,6.64,2.52,9.4,5.06,18.83,7.58,28.26-9.51,2.55-19.02,5.09-28.53,7.64-15.51,4.15-8.92,28.29,6.64,24.11,11.79-3.16,23.58-6.32,35.36-9.48,8.36,4.85,16.72,9.67,25.08,14.49-15.3,4.1-30.57,8.2-45.84,12.27-15.54,4.18-8.95,28.29,6.64,24.11,23.28-6.22,46.54-12.46,69.82-18.7,6.86,3.96,13.72,7.9,20.55,11.87-16.18,4.34-32.36,8.68-48.54,13.02-7.02,1.88-9.51,7.82-8.68,13.4-.27,2.46.11,4.98,1.26,7.15,2.2-.51,4.47-.86,6.75-1.02,14.31-1.18,28.4,5.22,37.56,16.64l4.82,7.21,10.85,19.05c.11-.16.21-.35.32-.62l15.67-43.05-20.98-5.63c8.52-2.28,17.04-4.55,25.53-6.83l3.99-10.98c3.08-6.54,8.01-11.68,14.01-14.92-2.6-9.67-5.17-19.37-7.77-29.07,7.69,7.72,15.4,15.43,23.12,23.12v1.93c.21-.03.4-.03.62-.03,9.59.03,18.27,3.94,24.38,10.64v-12.35c7.69-7.69,15.38-15.4,23.09-23.09-2.84,10.53-5.65,21.03-8.47,31.56-4.05,2.33-8.06,4.66-12.11,6.99,1.26,1.71,2.3,3.56,3.21,5.52l.86,2.17,26.36,80.72,15.86-62.66c-7.23,1.93-14.44,3.88-21.67,5.81-4.88-2.81-9.75-5.65-14.63-8.47,4.93-2.84,9.86-5.68,14.79-8.52,7.61,2.04,15.19,4.07,22.8,6.11ZM152.17,323.98l-.32-.46-1.37-2.06-12.91-22.53c-1.15-2.01-3.03-3-3.94-2.92-1.77.13-3.13.86-4.13,2.12-1.21,1.5-2.41,3.11-3.67,4.77l-.46.62c-.27.35-.54.72-.83,1.13l-4.72,6.11c-11.2,13.82-30.6,32.18-54.25,15.62-4.15-2.89-8.33-5.22-12.43-7.07-1.88,6.08.27,13.42,8.2,15.54,9.48,2.55,18.97,5.09,28.45,7.64-2.55,9.43-5.06,18.89-7.61,28.34-4.18,15.54,19.93,22.18,24.11,6.64,3.16-11.84,6.35-23.68,9.51-35.52,8.36-4.82,16.72-9.64,25.1-14.49-4.1,15.24-8.17,30.46-12.24,45.68-4.18,15.57,19.93,22.21,24.11,6.64,4.02-15.06,8.06-30.14,12.11-45.2-4.88-2.57-9.22-6.16-12.73-10.58ZM313.72,398.88c-9.03-9.06-18.08-18.08-27.14-27.14-9.38-2.87-17.09-9.81-20.87-19.29l-.37-1.13-.43-1.26-2.41-7.42-24.73-75.68s-11.81,33.42-12.22,33.7l-4.21,11.57c-5.68,15.57-19.64,26.15-35.58,26.95-1.58.08-3.19.08-4.74-.03-.64,2.36-1.26,4.74-1.9,7.1-1.85,6.94,1.9,12.08,7.02,14.31,4.45,3.35,10.77,4.07,15.86-1.02,11.84-11.81,23.66-23.66,35.5-35.47v23.74c-17.07,17.07-34.13,34.13-51.2,51.17-11.39,11.41,6.3,29.09,17.68,17.68,11.17-11.14,22.34-22.32,33.52-33.49v28.96c-8.65,8.65-17.31,17.31-25.93,25.93-11.41,11.41,6.27,29.09,17.66,17.68,6.91-6.91,13.85-13.85,20.76-20.74v-.03q.05-.03.05-.05c6.94,6.94,13.85,13.85,20.76,20.76,11.39,11.39,29.07-6.3,17.68-17.68-8.65-8.65-17.33-17.33-25.99-25.99v-29.04c11.17,11.2,22.37,22.37,33.54,33.57,11.41,11.39,29.09-6.3,17.68-17.68ZM368.96,236.83c-3.94-1.04-7.88-2.12-11.81-3.16l-8.87,34.96c6.86-1.85,13.74-3.67,20.6-5.52,6.8-1.82,9.35-7.45,8.79-12.86.8-5.6-1.66-11.55-8.71-13.42ZM410.22,342.46c9.46-2.55,18.89-5.06,28.34-7.61-6.59-2.38-12.59-6.78-17.44-12.89-1.71-2.17-3.27-4.53-4.61-7.1-6.64,1.77-13.29,3.56-19.93,5.33-8.39-4.82-16.74-9.67-25.13-14.49,12.81-3.43,25.64-6.86,38.47-10.31l-6.54-24.14c-19.96,5.36-39.92,10.69-59.85,16.05l-10.26,40.35c4.63,17.36,9.3,34.75,13.96,52.11,4.15,15.54,28.29,8.95,24.11-6.64-4.1-15.22-8.17-30.43-12.24-45.68,8.36,4.85,16.72,9.67,25.08,14.49,3.19,11.84,6.35,23.68,9.51,35.52,4.18,15.51,28.29,8.92,24.11-6.64-2.52-9.46-5.06-18.91-7.58-28.34Z"/>
  </g>
  <path class="cls-8" d="M249.89,249.76c.05.16.08.32.13.48l.08-.35c-.08-.05-.13-.08-.21-.13Z"/>
  <path class="cls-1" d="M494.06,296.95c-10.56,20.37-26.9,32.44-44.1,31.96-6.05-.12-14.91-2.29-22.55-11.95-3.32-4.19-5.81-9.3-7.44-15.19l-35.13-129.86c-2.41-9.18-7.52-13.33-11.27-13.33-1.74,0-3.4.99-4.83,2.73-1.42,1.78-2.61,4.31-3.4,7.44l-45.69,180.02c-3.52,9.77-12.58,16.22-22.98,16.38h-.4c-10.24,0-19.3-6.13-23.1-15.66l-.24-.71-33.78-103.4c-.16-.2-.47-.44-1.07-.44s-.91.24-1.07.47l-23.26,64.08c-4.55,12.54-15.7,21.04-28.4,21.68-10.4.51-20.45-4.03-26.9-12.18l-1.03-1.5-12.9-22.55c-2.57-4.51-7.32-7.36-11.71-6.92-3.84.28-7.28,2.14-9.65,5.14-1.34,1.66-2.77,3.56-4.23,5.5-9.41,12.7-27.06,36.31-48.77,21.12-25.91-18.16-53.08-15.35-53.36-15.35,0,0-10.32.47-12.06-12.5-1.38-10.21,9.26-11.08,9.26-11.08,1.46-.16,36.15-4.03,69.82,19.5.47.36.75.4.75.4,3.48-.32,11.79-11.51,15.35-16.26,1.62-2.18,3.16-4.23,4.67-6.13,6.41-8.07,16.02-13.21,26.38-14,13.69-1.11,27.06,6.29,34.18,18.79l12.34,21.64c1.74,1.82,4.15,2.81,6.68,2.69,3.09-.16,6.01-2.61,7.28-6.09l23.93-65.82c4.19-8.86,12.9-14.36,22.7-14.36h.16c9.85.04,18.55,5.66,22.67,14.6l.51,1.31,33.9,103.79c.12.28.36.51.95.51h.04c.51,0,.75-.2.91-.44l45.09-178.08c5.3-20.61,19.54-28.01,31.13-28.04h.12c15.58,0,29.31,12.42,34.22,30.89l35.13,129.82c.71,2.77,1.78,4.98,3.09,6.68,2.33,2.89,3.72,2.93,4.47,2.93h.2c5.78,0,14.99-4.98,22.35-19.14,0,0,4.59-8.9,14.79-4.79,11.79,4.75,6.25,15.7,6.25,15.7Z"/>
</svg>