<?xml version="1.0" encoding="UTF-8"?>
<svg id="Layer_1" data-name="Layer 1" xmlns="http://www.w3.org/2000/svg" xmlns:xlink="http://www.w3.org/1999/xlink" viewBox="0 0 500 500">
  <defs>
    <style>
      .cls-1 {
        fill: url(#linear-gradient-7);
      }

      .cls-2 {
        fill: url(#linear-gradient-5);
      }

      .cls-3 {
        fill: url(#linear-gradient-6);
      }

      .cls-4 {
        fill: url(#linear-gradient-4);
      }

      .cls-5 {
        fill: url(#linear-gradient-3);
      }

      .cls-6 {
        fill: url(#linear-gradient-2);
      }

      .cls-7 {
        fill: #231f20;
      }

      .cls-8 {
        fill: url(#linear-gradient);
      }

      .cls-9 {
        fill: #f1f2f2;
      }
    </style>
    <linearGradient id="linear-gradient" x1="231.78" y1="40.27" x2="268.19" y2="40.27" gradientUnits="userSpaceOnUse">
      <stop offset=".25" stop-color="#d1d3d4"/>
      <stop offset="1" stop-color="#94e4ff"/>
    </linearGradient>
    <linearGradient id="linear-gradient-2" y1="459.73" y2="459.73" xlink:href="#linear-gradient"/>
    <linearGradient id="linear-gradient-3" x1="413.42" y1="354.89" x2="449.84" y2="354.89" gradientUnits="userSpaceOnUse">
      <stop offset="0" stop-color="#7fe4ff"/>
      <stop offset=".16" stop-color="#00e6ef"/>
      <stop offset=".93" stop-color="#008aef"/>
    </linearGradient>
    <linearGradient id="linear-gradient-4" y1="145.16" y2="145.16" xlink:href="#linear-gradient-3"/>
    <linearGradient id="linear-gradient-5" x1="50.16" y1="145.16" x2="86.58" y2="145.16" gradientUnits="userSpaceOnUse">
      <stop offset="0" stop-color="#fff"/>
      <stop offset=".19" stop-color="#f5f5f5"/>
      <stop offset=".54" stop-color="#e9eaeb"/>
      <stop offset=".91" stop-color="#e6e7e8"/>
    </linearGradient>
    <linearGradient id="linear-gradient-6" y1="354.89" y2="354.89" xlink:href="#linear-gradient-5"/>
    <linearGradient id="linear-gradient-7" x1="67.69" y1="250.01" x2="432.34" y2="250.01" gradientUnits="userSpaceOnUse">
      <stop offset="0" stop-color="#fff"/>
      <stop offset=".04" stop-color="#f5f5f5"/>
      <stop offset=".11" stop-color="#e9eaeb"/>
      <stop offset=".19" stop-color="#e6e7e8"/>
      <stop offset=".4" stop-color="#d1d3d4"/>
      <stop offset=".74" stop-color="#7fe4ff"/>
      <stop offset=".89" stop-color="#00e6ef"/>
      <stop offset="1" stop-color="#008aef"/>
    </linearGradient>
  </defs>
  <g>
    <g>
      <polygon class="cls-8" points="268.19 50.78 268.19 29.76 249.99 19.25 231.78 29.76 231.78 50.78 249.99 61.29 268.19 50.78"/>
      <polygon class="cls-6" points="231.78 449.22 231.78 470.24 249.99 480.75 268.19 470.24 268.19 449.22 249.99 438.71 231.78 449.22"/>
      <polygon class="cls-9" points="86.58 155.67 86.58 134.65 68.37 124.14 50.16 134.65 50.16 155.67 68.37 166.18 86.58 155.67"/>
      <polygon class="cls-5" points="413.42 344.38 413.42 365.4 431.63 375.91 449.84 365.4 449.84 344.38 431.63 333.86 413.42 344.38"/>
      <polygon class="cls-9" points="50.16 344.38 50.16 365.4 68.37 375.91 86.58 365.4 86.58 344.38 68.37 333.86 50.16 344.38"/>
      <polygon class="cls-4" points="431.63 124.14 413.42 134.65 413.42 155.67 431.63 166.18 449.84 155.67 449.84 134.65 431.63 124.14"/>
    </g>
    <polygon class="cls-2" points="86.58 155.67 86.58 134.65 68.37 124.14 50.16 134.65 50.16 155.67 68.37 166.18 86.58 155.67"/>
    <polygon class="cls-3" points="50.16 344.38 50.16 365.4 68.37 375.91 86.58 365.4 86.58 344.38 68.37 333.86 50.16 344.38"/>
    <path class="cls-1" d="M101.68,267.82c-11.7-3.14-17.95,11.05-12.09,18.47,1.31,1.71,3.26,3.04,5.93,3.76.22.05.45.12.67.17.54.15,1.11.3,1.66.45,1.73-1.66,4.6-4.99,9.42-11.45l.27-.35c1.51-2.05,2.97-3.98,4.38-5.76.57-.72,1.16-1.41,1.78-2.08-4.01-1.06-8.01-2.15-12.02-3.21ZM161.64,316.73l-1.36-2-11.89-20.8c-1.41-2.45-3.93-4.15-6.03-3.93-2.25.17-4.18,1.19-5.51,2.89-1.11,1.38-2.28,2.89-3.44,4.45l-.42.54c-.42.57-.89,1.21-1.36,1.85,1.47.4,2.95.79,4.42,1.18.69.18.82,1.12.2,1.47-4.31,2.48-8.63,4.98-12.93,7.46-.06.04-.12.08-.17.14-10.09,10.65-24.84,20.44-41.94,8.48-3.73-2.62-7.53-4.74-11.24-6.44-.41-.19-.9,0-1.09.4-2.63,5.88-.99,13.75,7.01,15.89,8.49,2.28,16.99,4.56,25.48,6.84.43.12.68.56.57.98-2.28,8.45-4.53,16.92-6.81,25.39-3.86,14.34,18.4,20.47,22.26,6.13,2.89-10.82,5.8-21.64,8.69-32.47.06-.21.19-.38.37-.49,7.06-4.07,14.12-8.15,21.2-12.24.62-.36,1.37.21,1.18.9-3.61,13.44-7.2,26.86-10.8,40.28-3.86,14.37,18.4,20.5,22.26,6.13,3.88-14.54,7.78-29.06,11.69-43.6.09-.35-.06-.71-.38-.89-3.79-2.15-7.16-5.04-9.95-8.56ZM308.82,387.43c-9.89-9.92-19.81-19.81-29.7-29.72-5.8-5.76-11.53-11.58-17.31-17.26l-.27-.66v-12.07c0-.08-.01-.17-.04-.25l-21.96-67.19c-.24-.73-1.26-.74-1.52-.02l-4.6,12.69c1.28-.75,2.56-1.49,3.84-2.23.54-.31,1.21.08,1.21.7v14c0,.21-.09.42-.24.57-4.95,4.95-9.9,9.9-14.84,14.82-.08.08-.15.18-.19.29l-1.99,5.49c-4.87,13.45-16.89,22.58-30.61,23.27-1.21.05-2.4.05-3.59,0h-.02c-.79,2.99-1.61,6.01-2.4,9-1.71,6.4,1.76,11.15,6.48,13.2,4.1,3.09,9.94,3.76,14.64-.94,10.47-10.45,20.92-20.92,31.39-31.37.51-.51,1.37-.15,1.37.57v19.63c0,.21-.08.42-.24.57-15.67,15.67-31.35,31.35-47.02,47-10.51,10.53,5.81,26.85,16.32,16.32,9.85-9.83,19.71-19.68,29.56-29.54.51-.51,1.37-.15,1.37.57v24.46c0,.21-.08.42-.24.57l-23.7,23.7c-10.53,10.53,5.79,26.85,16.3,16.32,6.38-6.38,12.78-12.78,19.16-19.14v-.02s.05-.02.05-.05c6.4,6.4,12.78,12.78,19.16,19.16,10.51,10.51,26.83-5.81,16.32-16.32l-23.75-23.75c-.15-.15-.24-.36-.24-.57v-24.53c0-.72.87-1.08,1.37-.57,9.86,9.88,19.73,19.73,29.59,29.61,10.53,10.51,26.85-5.81,16.32-16.32ZM427.52,326.85c-5.56-1.43-11.94-4.77-17.63-11.97-1.26-1.57-2.4-3.29-3.41-5.12-.18-.32-.54-.48-.9-.39-6.64,1.77-13.29,3.57-19.95,5.34-.21.05-.43.03-.61-.08-7.08-4.07-14.14-8.17-21.22-12.24-.62-.36-.5-1.29.19-1.47,11.73-3.15,23.5-6.3,35.23-9.45.43-.12.68-.56.57-.99l-5.59-20.73c-.12-.43-.56-.68-.99-.57-19.8,5.32-39.59,10.62-59.36,15.91-.07-.05-.12-.07-.2-.12l-8.03,31.62c-.03.13-.03.27,0,.41,4.71,17.59,9.41,35.18,14.14,52.76,3.83,14.34,26.11,8.26,22.26-6.13-3.62-13.42-7.21-26.84-10.8-40.28-.19-.69.56-1.26,1.18-.9,7.06,4.09,14.12,8.16,21.18,12.24.18.11.32.28.38.49,2.91,10.82,5.8,21.65,8.69,32.47,3.86,14.32,26.11,8.23,22.26-6.13-2.26-8.47-4.53-16.94-6.79-25.39-.11-.43.14-.87.57-.98,8.49-2.28,16.96-4.56,25.46-6.84,1.29-.35,2.42-.84,3.39-1.46ZM359.81,237.85c-4.16-1.12-8.33-2.23-12.49-3.35-.43-.12-.88.14-.99.58l-8.02,31.53c-.15.6.39,1.13.99.97,6.81-1.83,13.63-3.64,20.44-5.48,6.28-1.68,8.63-6.87,8.11-11.87.74-5.17-1.53-10.66-8.04-12.39ZM339.63,130.28c-5.76,21.46-11.52,42.91-17.25,64.37-.06.21-.19.38-.37.49-5.67,3.28-11.35,6.54-17.02,9.82-.62.36-1.36-.21-1.18-.9,3.84-14.29,7.65-28.57,11.49-42.83,1.68-6.33-1.68-11.05-6.31-13.16-4.1-3.09-9.94-3.78-14.66.94l-31.42,31.42c-.51.51-1.37.15-1.37-.57v-19.63c0-.21.08-.42.24-.57,15.67-15.7,31.37-31.37,47.04-47.07,10.53-10.51-5.79-26.83-16.32-16.32-9.85,9.88-19.73,19.73-29.59,29.61-.51.51-1.37.15-1.37-.57v-24.53c0-.21.08-.42.24-.57,7.91-7.91,15.84-15.82,23.75-23.75,10.51-10.51-5.81-26.83-16.32-16.32-6.38,6.38-12.76,12.78-19.16,19.16t-.05-.05l-19.16-19.16c-10.51-10.51-26.83,5.79-16.3,16.32,7.88,7.88,15.79,15.79,23.7,23.7.15.15.24.36.24.57v24.46c0,.72-.87,1.07-1.37.57-9.85-9.85-19.71-19.68-29.56-29.54-10.51-10.51-26.83,5.79-16.32,16.32,15.67,15.67,31.35,31.32,47.02,47,.15.15.24.36.24.57v19.63c0,.72-.87,1.08-1.37.57-10.47-10.45-20.92-20.92-31.39-31.37-4.82-4.82-10.88-3.98-15.01-.67-4.45,2.15-7.64,6.8-5.98,13.01,3.84,14.26,7.65,28.55,11.49,42.83.19.69-.56,1.26-1.18.9-5.67-3.28-11.34-6.54-17-9.82-.18-.11-.32-.28-.37-.49-5.76-21.46-11.52-42.91-17.25-64.37-3.86-14.32-26.11-8.26-22.26,6.13,3.59,13.44,7.21,26.91,10.8,40.36.19.69-.56,1.26-1.18.9-7.06-4.09-14.14-8.17-21.23-12.26-.18-.11-.32-.28-.37-.49-2.89-10.85-5.8-21.67-8.72-32.52-3.83-14.34-26.11-8.26-22.26,6.13,2.26,8.42,4.53,16.87,6.79,25.31.11.43-.14.87-.57.99-8.52,2.28-17.04,4.56-25.56,6.84-17.12,4.58-5.07,35.54,15.43,16.65,8.84-1.06,15-1.8,23.84-2.86,6.99,4.05,13.98,8.09,20.97,12.12.62.36.5,1.29-.2,1.47-13.49,3.62-26.96,7.23-40.43,10.82-14.34,3.86-8.26,26.11,6.13,22.26,21.38-5.71,42.74-11.44,64.12-17.17.21-.06.43-.03.61.08,5.67,3.28,11.35,6.54,17,9.81.62.36.5,1.29-.2,1.48-14.31,3.84-28.62,7.68-42.93,11.52-6.48,1.73-8.78,7.22-8.01,12.36-.33,3.03.39,6.11,2.4,8.45.19.22.5.31.78.26,1.44-.29,2.91-.48,4.38-.6,11.13-.88,22.12,3.51,30.02,11.59.1.1.22.17.35.21,4.38,1.17,8.77,2.35,13.15,3.52.69.19.82,1.12.19,1.47-2.08,1.2-4.17,2.4-6.25,3.6-.38.22-.52.71-.3,1.1l10.09,17.65c.57.45,1.24.67,2,.64.59-.02,1.73-.82,2.3-2.37l14.24-39.11c.16-.44-.09-.93-.55-1.05l-17.99-4.83c-.8-.21-.79-1.34,0-1.55,7.72-2.06,15.42-4.13,23.13-6.19.25-.07.46-.25.55-.5l2.88-7.89s.03-.06.04-.1c2.43-5.13,6.21-9.25,10.84-12.02.3-.18.45-.53.36-.88-2.31-8.59-4.6-17.19-6.91-25.8-.21-.8.76-1.36,1.34-.78,6.32,6.33,12.65,12.66,18.98,18.98.15.15.24.36.24.57v3.89c.17-.02.37-.02.54-.02,8.37.05,15.92,3.55,21.14,9.51.48.55,1.39.18,1.39-.55v-12.66c0-.21.08-.42.24-.57,6.31-6.31,12.62-12.64,18.95-18.96.58-.58,1.56-.01,1.35.78-2.33,8.64-4.64,17.26-6.95,25.9-.06.21-.19.38-.38.49-4.1,2.37-8.19,4.72-12.29,7.09-.4.23-.52.75-.26,1.14.89,1.31,1.68,2.71,2.37,4.19l.67,1.73,26.12,79.98c.25.77,1.35.73,1.54-.05l16.07-63.43c.15-.6-.39-1.13-.99-.97-7.02,1.9-14.06,3.78-21.08,5.66-.21.06-.43.03-.61-.08-1.43-.82-2.86-1.65-4.29-2.48,3.13-7.58,2.19-5.29,5.32-12.87,7.35,1.96,14.68,3.93,22.03,5.91.43.12.88-.14.99-.58l5.46-21.59c-.27-.07-.54-.15-.82-.22.35-.2.69-.4,1.04-.59l14.39-56.85c5.19-20.23,18.82-28.39,30.79-29.5.22-.82.45-1.66.67-2.47,3.83-14.37-18.42-20.47-22.26-6.13ZM382.56,132.41c-.89,3.29-1.77,6.58-2.64,9.87-.09.35.06.71.38.89,7,3.97,12.89,10.46,16.79,18.7.32.68,1.31.61,1.51-.12,2.08-7.75,4.13-15.48,6.21-23.21,3.86-14.37-18.4-20.5-22.26-6.13ZM375.46,202.1c-3.77-1.01-7.55-2.03-11.32-3.04-.69-.19-.81-1.11-.19-1.47,2.91-1.68,5.82-3.36,8.73-5.05.31-.18.47-.56.37-.91l-3.35-12.41c-1.51-5.71-4.13-8.09-5.29-8.56-.3.15-.57.32-.87.49-.05.02-.07.07-.12.12-.84,1.06-1.63,2.84-2.15,4.95l-10.73,42.26c-.11.43.15.86.57.98,10.15,2.73,20.28,5.46,30.42,8.16.6.16,1.15-.39.99-.99l-6.49-23.97c-.07-.28-.29-.49-.57-.57ZM424.16,171.68c-8.1-2.16-16.2-4.33-24.28-6.49-.63-.17-1.18.44-.95,1.06.56,1.52,1.06,3.09,1.49,4.72l5.2,19.24c.07.28.29.49.57.57,3.95,1.05,7.89,2.12,11.84,3.17,14.37,3.83,20.5-18.42,6.13-22.26Z"/>
  </g>
  <path class="cls-7" d="M475.27,293.34c-9.75,18.8-24.83,29.94-40.71,29.5-5.59-.11-13.76-2.12-20.81-11.03-3.07-3.87-5.37-8.58-6.86-14.02l-32.42-119.86c-2.23-8.47-6.94-12.3-10.41-12.3-1.61,0-3.14.91-4.45,2.52-1.31,1.64-2.41,3.98-3.14,6.86l-42.17,166.16c-3.25,9.02-11.61,14.97-21.21,15.12h-.37c-9.46,0-17.82-5.66-21.32-14.46l-.22-.66-31.18-95.44c-.15-.18-.44-.4-.99-.4s-.84.22-.99.44l-21.47,59.15c-4.2,11.57-14.49,19.42-26.21,20.01-9.6.47-18.88-3.72-24.83-11.24l-.95-1.39-11.9-20.81c-2.37-4.16-6.75-6.79-10.81-6.39-3.54.26-6.72,1.97-8.91,4.75-1.24,1.53-2.56,3.29-3.91,5.07-8.69,11.72-24.97,33.52-45.02,19.5-23.91-16.76-49-14.17-49.25-14.17,0,0-9.53.44-11.14-11.54-1.28-9.42,8.54-10.22,8.54-10.22,1.35-.15,33.37-3.72,64.44,18,.44.33.69.37.69.37,3.21-.29,10.88-10.62,14.17-15.01,1.5-2.01,2.92-3.91,4.31-5.66,5.91-7.45,14.79-12.19,24.35-12.92,12.63-1.02,24.97,5.81,31.54,17.34l11.39,19.97c1.61,1.68,3.83,2.59,6.17,2.48,2.85-.15,5.55-2.41,6.72-5.62l22.09-60.75c3.87-8.18,11.9-13.25,20.96-13.25h.15c9.09.04,17.12,5.22,20.92,13.47l.47,1.2,31.29,95.8c.11.26.33.47.88.47h.04c.47,0,.69-.18.84-.4l41.62-164.37c4.89-19.02,18.04-25.85,28.73-25.89h.11c14.38,0,27.05,11.46,31.58,28.51l32.42,119.83c.66,2.56,1.64,4.6,2.85,6.17,2.15,2.67,3.43,2.7,4.13,2.7h.18c5.33,0,13.84-4.6,20.63-17.67,0,0,4.24-8.21,13.65-4.42,10.88,4.38,5.77,14.49,5.77,14.49Z"/>
</svg>